<svg xmlns="http://www.w3.org/2000/svg" viewBox="0 0 512 447.99">
  <path d="M0 0h.1a.47.47 0 0 0-.1.1V0Zm52.31 225.25c5.17-1.02 10.46-.44 15.69-.51 25.66-.06 51.33.1 76.99-.08 9.92-.72 19.57 4.01 26.56 10.81 5.01 4.54 6.88 11.33 8.4 17.67 1.83 8.21-2.51 16.17-7.38 22.45-6.64 7.34-16.51 12.4-26.58 11.75-16.99-.19-33.99.03-50.99-.12-8.7-.29-17.29 1.58-26 1.09-12.59.55-26.76-1.94-35.59-11.71-4.49-4.6-6.32-10.94-8.19-16.91-1.23-3.73-.25-7.66 1.1-11.2 1.45-3.78 2.6-7.8 5.19-10.99 5.56-5.98 12.76-10.54 20.8-12.25Zm304.96-.13c4.87-.75 9.82-.35 14.73-.38 30.01-.04 60.02.02 90.03-.05 11.97-.02 22.64 8.72 26.64 19.7 1.47 4.69 3.14 9.58 2.46 14.57-1.49 7.66-4.47 15.45-10.47 20.72-6 5.13-13.62 8.74-21.64 8.59-32.35.02-64.7-.07-97.05.05-5.99.17-11.35-2.93-16.22-6.06-8.04-5.5-12.84-14.7-13.98-24.26-.4-14.99 10.06-30.59 25.5-32.88Z"/>
  <path fill="#f60001" d="M9.56 73.57c7.72-7.51 18.95-10.18 29.45-9.82 36 .16 72.01.05 108.02.05 12.3.02 25.14 5.98 30.95 17.23 3.2 6.94 5.54 15.03 2.9 22.54a31.74 31.74 0 0 1-17.99 21.49c-6.54 3-13.92 2.04-20.89 2.13-37.35-.09-74.7.21-112.05.12-11.29-.12-21.81-7.51-26.53-17.63-1.49-3.34-2.39-6.89-3.42-10.38v-7.52c2.35-6.43 4.44-13.36 9.56-18.21Zm211.98-8.97c1.43-.42 2.91-.7 4.4-.79 60.69.01 121.37.06 182.06-.02 10.58-.58 21.98 1.89 29.93 9.27 6.39 5.87 9.48 14.48 10.22 22.95-.57 12.64-8.4 25.47-20.78 29.56-6.48 2.64-13.58 1.6-20.37 1.73-61.36.09-122.71-.08-184.06-.14-10.7-1.07-20.14-9.01-24.25-18.77-1.35-4.93-3.75-9.99-2.54-15.21 1.43-5.96 2.77-12.27 7.08-16.92 4.46-5.98 11.44-9.27 18.31-11.66Zm-131.2 81.68c5.18-.84 10.44-.4 15.66-.45l226-.01c6.73.01 13.74-.61 20.15 1.91 9.18 3.52 17.14 11.36 19.12 21.22 1.11 4.74 2.98 9.78 1.24 14.62-2.45 7.08-6.2 14.1-12.33 18.65-4.67 3.44-10.24 5.97-16.13 5.97-80.68-.03-161.37-.01-242.05-.01-5.31-.1-10.84.69-15.93-1.2a35.26 35.26 0 0 1-18.64-16.47c-3.69-9.16-3.9-20.21 1.07-28.95 4.99-7.56 12.66-13.92 21.84-15.28Zm319.74.77c5.78-1.9 11.95-1.18 17.92-1.24 17.68.02 35.36.06 53.04-.06 8.22-.24 16.06 3.72 21.8 9.41 5.14 4.91 7.34 11.88 9.16 18.55v9.64c-3.21 9.03-8.84 17.6-17.52 22.16-5.88 3.49-12.95 2.69-19.48 2.69-16.34-.05-32.67-.03-49-.01-5.41-.06-10.98.63-16.23-.98-10.02-3.6-18.38-12.22-20.57-22.8-2.16-6.74-.55-13.92 1.93-20.33 3.41-8.11 10.75-14.14 18.95-17.03Z" data-darkreader-inline-fill="" style="--darkreader-inline-fill: #c50001;"/>
  <path fill="#fff" d="M219.42 225.63c1.83-.33 3.7-.41 5.57-.45 19 .06 38 .07 57.01.02 5.62.03 11.57-.51 16.79 2.06 7.34 3.41 13.66 9.63 16.45 17.32 1.2 4.69 3.05 9.41 2.62 14.35-1.51 11.05-8.74 21.34-19.04 25.85-5.49 2.9-11.87 1.95-17.82 2.05-18.33.02-36.67-.08-55 .05-18.15 1.22-33.38-17.86-30.4-35.26 1.94-12.32 11.56-23.24 23.82-25.99ZM38.5 304.67c4.79-.82 9.67-.42 14.5-.45h78c25 .15 50-.59 75-.33 6.77.27 13.7-.83 20.34.92 9.64 3.06 18.33 10.07 22.06 19.64 1.43 4.63 3.25 9.46 2.34 14.38-1.16 5.52-2.76 11.14-6.31 15.64-5.23 6.99-13.47 12.35-22.41 12.33-61.02-.02-122.04.19-183.06.07-8.21-.78-15.79-5.51-20.91-11.88-4.01-4.49-5.18-10.53-6.75-16.14-.96-4.05.52-8.03 1.69-11.86 2.83-11.75 13.66-20.72 25.51-22.32Zm251.96.99c1.81-.39 3.67-.48 5.53-.52 42 .12 84 0 126-.05 6.69-.04 13.87-.42 19.85 3.12 10.28 5.17 16.46 16.49 16.95 27.75-.87 9.04-4.34 18.33-11.7 24.07-4.69 3.49-10.19 6.32-16.08 6.86-44 .02-88.01-.25-132.01-.07-12.82 1.25-24.69-7.83-29.29-19.39-1.9-5.6-3.75-11.71-1.84-17.57 2.4-11.35 11.36-21.12 22.59-24.2Zm-44.94 80.01c2.44-.63 4.96-.89 7.48-.86 20.66.29 41.33-.25 61.99.4 53.01 0 106.01.06 159.01-.03 7.88-.49 15.96 1.11 22.82 5.09 7.87 4.79 13.56 13.42 14.01 22.73.36 6.12.31 12.65-2.69 18.19-4.67 9.43-14.52 16.24-25.08 16.72-73.36-.04-146.71.02-220.06-.13-6.13-.16-12.34.56-18.4-.56a31.63 31.63 0 0 1-20.93-18.76c-1.17-3.74-2.4-7.54-2.62-11.47.23-14.33 10.97-27.19 24.47-31.32Zm-156.17.81c3.2-.48 6.44-.41 9.66-.4 25.67.14 51.34.1 77.01.07 5.84-.19 11.17 2.77 15.67 6.22 6.27 5.28 10.93 12.68 12.01 20.9 2.03 16.62-11.6 34.08-28.68 34.53-26.34-.02-52.68-.08-79.02.15a26.58 26.58 0 0 1-14.65-3.41c-9.65-4.81-15.39-14.87-17.84-25.02-.88-4.37 1.41-8.43 2.67-12.47 3.39-10.24 12.28-18.99 23.17-20.57Z" data-darkreader-inline-fill="" style="--darkreader-inline-fill: #181a1b;"/>
</svg>