<svg xmlns="http://www.w3.org/2000/svg" viewBox="25.14 18.95 3311.13 292.09">
  <path d="M416.25 98.81c.8 3.64.9 7.78-.03 11.37.36-3.79.34-7.58.03-11.37ZM62.33 141.39c4.8-1.13 9.78-.65 14.67-.71 18.67 0 37.33.03 56-.02 4.93.05 10.14-.51 14.76 1.6 6.56 2.96 12.28 8.38 14.63 15.28a30.26 30.26 0 0 1-.05 14.83c-2.51 6.88-8.27 12.29-14.93 15.14-4.24 1.76-8.95 1.08-13.41 1.16-20.33-.03-40.66-.03-60.99 0-4.94-.05-10.27.69-14.74-1.89-6.27-3.46-11.97-9.01-13.8-16.12-.75-4.74-.98-9.84.79-14.38 3.34-6.98 9.61-12.7 17.07-14.89Zm232.09.15c2.11-.72 4.36-.83 6.57-.89 25.67.06 51.35.06 77.02.01 10.83-.53 20.07 8.68 22.63 18.68 3.08 11.44-4.08 24.02-14.77 28.47-4.14 1.39-8.59.77-12.87.86-24.69-.03-49.37-.04-74.05.02-6.39.07-11.82-4.35-15.6-9.1-5.13-6.38-5.8-15.28-3.67-22.94 2.51-6.77 7.93-12.57 14.74-15.11Z"/>
  <path fill="#f60001" d="M40.36 19.49c1.5-.37 3.05-.44 4.58-.49 31.02.05 62.04.05 93.05 0 4.97.1 10.43-.7 14.83 2.16 5.71 3.56 10.38 9.35 11.63 16.07.62 5.41.78 11.27-1.91 16.19a26.87 26.87 0 0 1-12.87 12.21c-4.01 1.66-8.46.93-12.67 1.04-27.67-.04-55.33-.03-82.99 0-5.25-.08-10.93.75-15.69-2.02-5.86-3.25-10.73-8.77-12.59-15.27-.67-5.51-1.17-11.46.88-16.74 2.9-5.7 7.59-11.01 13.75-13.15Zm150.01.02c1.49-.38 3.04-.45 4.57-.51 48.69.05 97.37.04 146.06.01 4.56.14 9.43-.69 13.72 1.28 8.52 4.48 14.37 14.01 13.71 23.73-.88 11.65-11.14 23.27-23.38 22.68-47.02-.12-94.04-.02-141.05-.04-5.25-.16-10.96.92-15.75-1.82-6.43-3.48-11.74-9.63-13.19-16.9-.78-6.05-.63-12.71 2.83-17.98 2.93-4.62 7.13-8.83 12.48-10.45ZM89.36 81.42c4.77-1.24 9.76-.63 14.64-.73 59.67 0 119.33.03 179-.02 5.31.08 11.19-.73 15.86 2.41 6.09 3.92 11.29 10.39 11.55 17.9.24 5.32.37 11.11-2.66 15.75-3.58 5.79-9.42 11.36-16.7 11.09-63.35-.02-126.7-.04-190.05 0-5.2-.12-10.98.82-15.57-2.26a27.14 27.14 0 0 1-11.48-16.64c-2.39-11.27 4.72-23.54 15.41-27.5Zm235.72 9.64c3.85-5.53 9.76-10.64 16.9-10.37 17.67-.02 35.35.04 53.02-.03 4.45-.17 8.97 1.01 12.36 4 4.24 3.61 8.52 8.33 8.89 14.15.31 3.79.33 7.58-.03 11.37-.24 4.6-3.33 8.47-6.29 11.77-3.29 3.58-7.91 6.11-12.88 5.87-18.37 0-36.74-.06-55.11.02-3.25.05-6.6-.54-9.29-2.48-5.75-3.96-10.52-10.17-11.01-17.35-.48-5.79-.09-12.08 3.44-16.95Z"/>
  <path fill="#fff" d="M1049.35 36.31c31.47-1.59 64.47 5.22 90.23 24.09 6.21 4.83 13.25 10.34 14.63 18.6 1.15 6.86-3.17 12.86-7.54 17.63-4.74 5.16-8.91 11.68-15.88 13.99-6.77 2-12.96-2.45-17.86-6.56a81.23 81.23 0 0 0-38.96-17.92c-13.37-2.14-27.26-2.33-40.38 1.38-16.38 4.3-30.94 14.51-41.23 27.88-14.76 18.98-21.52 43.68-19.63 67.56 1.19 15.54 7.2 30.94 17.94 42.37 9.2 9.93 21.71 16.46 34.89 19.23 19.66 4.11 40.88 1.41 58.48-8.47 5.46-2.74 10.06-6.99 15.74-9.31 4.69-1.97 10.56-1.52 14.36 2.07 3.97 3.74 5.68 9.1 8.24 13.79 2.79 5.48 6.39 11.65 4.11 17.97-3.26 8.84-12.08 13.59-19.7 18.15-22.76 13.4-49.84 17.31-75.88 15.99-32.3-1.8-64.19-16.67-84.61-42.05-14.21-17.5-22.8-39.27-25.16-61.64-4.14-34.42 5.56-70.03 25.77-98.11 18.39-25.64 45.68-45.07 76.44-52.66a145.36 145.36 0 0 1 26-3.98ZM1266 42.07c25.4-7.74 52.85-7.78 78.58-1.53 18.6 4.7 36.65 12.94 50.93 25.96 4.64 4.14 8.53 10.04 7.77 16.53-.65 7.23-6.36 12.27-10.7 17.52-3.93 4.52-8.24 9.77-14.59 10.54-6.75.83-12.31-3.85-17.1-7.93-14.59-12.46-33.83-18.46-52.82-18.81-17.46-.93-35.28 3.96-49.5 14.22-16.36 11.72-27.86 29.54-33.29 48.8-5.19 18.31-5.51 38.36 1.09 56.36 5.39 14.46 15.89 27.1 29.58 34.38 16.02 8.68 35.2 10.49 52.93 6.97 12.13-2.33 23.81-7.82 32.75-16.44 3.38-3.47 7.48-7.03 7.99-12.16 1.02-7.15 2.68-14.21 3.33-21.4-11.33-.57-22.71.17-34.05-.33-5.24-.25-10.89-2.4-13.55-7.19-2.88-5.02-2.24-11.08-1.34-16.56.91-5.45 2.63-11.29 7.16-14.86 4.38-3.62 10.34-4.15 15.8-4.15 19.69.03 39.38-.01 59.07.02 6.06 0 12.9.98 17.08 5.86 4.2 4.79 4.37 11.61 3.52 17.59-2.37 15.21-4.78 30.42-7.17 45.63-1.3 8.53-2.48 17.52-7.58 24.76-17.55 24.53-45.14 41.22-74.75 46.47-23.27 4.2-47.84 3.89-70.31-4.07a113.2 113.2 0 0 1-43.45-26.64c-15.01-14.77-25.48-33.95-30.41-54.39-8.64-35.53-2.12-74.18 16.99-105.27 17.08-28.17 44.38-50.33 76.04-59.88Zm-735.27 6.67c4.23-4.92 10.93-6.7 17.21-6.71 17.02-.08 34.04 0 51.06-.03 11.78-.09 23.69.02 35.22 2.74 15.06 3.33 29.51 10.57 40.09 21.96 11.2 11.91 17.36 28.01 18.4 44.22 1.44 22.01-4.03 44.78-16.96 62.83-14.83 21.31-39.95 34.34-65.68 35.93-18.54.94-37.16-.27-55.68.64-3.52 20.72-6.49 41.56-9.96 62.29-1.06 6.03-4.42 11.96-10.05 14.77-6.6 3.4-14.26 2.54-21.42 2.62-6.02-.01-12.75-1.29-16.7-6.27-4.33-5.3-3.87-12.64-2.85-19 10.48-66.89 20.93-133.78 31.42-200.67.8-5.43 2.13-11.12 5.9-15.32m43.65 40.58c-1.1.84-.86 2.46-1.22 3.66-3.47 23.99-7.92 47.86-11.12 71.88 8.31.38 16.64.02 24.96.14 8.71-.17 17.68.78 26.12-1.94a37.16 37.16 0 0 0 20.5-15.44c6.03-9.57 8.04-21.46 6.18-32.56a30.24 30.24 0 0 0-18.38-22.57c-9.58-4.19-20.24-3.2-30.41-3.31-5.55.13-11.11-.3-16.63.14ZM734.62 44.6c5.64-2.96 12.2-2.61 18.38-2.61 48.68.04 97.36-.02 146.04.02 6.9-.09 14.87 1.92 18.45 8.41 3.59 6.87 1.34 14.81.19 22.01-.96 6.23-3.63 12.68-9.22 16.09-6.99 4.41-15.6 3.35-23.46 3.49-13.91.16-27.85-.35-41.74.22-9.12 56.82-17.84 113.71-26.79 170.56-1.18 6.95-1.71 14.61-6.49 20.21-4.55 5.56-12.1 7.15-18.95 7.01-7.69-.06-16.38.86-22.83-4.21-5.89-4.66-6.44-12.97-5.26-19.84 7.7-48.92 15.43-97.84 23.14-146.76 1.25-9.04 3.15-18 4.07-27.08-13.37-.3-26.77-.03-40.15-.11-6.71-.05-13.97.59-19.99-2.99-4.92-2.79-7.7-8.43-7.72-13.99-.07-5.39.85-10.75 1.91-16.02 1.21-5.99 4.84-11.66 10.42-14.41Zm741.18 2.15c4.46-3.75 10.49-4.75 16.16-4.75 17.01-.02 34.03.01 51.04 0 11.72-.1 23.58.12 35.04 2.93 15.44 3.54 30.21 11.3 40.7 23.34 10.33 11.74 15.94 27.15 16.97 42.66 1.4 21.54-3.81 43.78-16.15 61.65a84.54 84.54 0 0 1-39.79 31.24c-11.05 4.27-22.95 6.14-34.76 6.18-14.02.02-28.03.05-42.04-.03-1.88.01-3.76.02-5.58.34-3.24 19.21-6.09 38.5-9.17 57.74-.8 5.89-2.24 12.19-6.76 16.41-4.84 4.76-11.98 5.66-18.45 5.57-6.94-.08-14.56.64-20.62-3.41-4.79-3.14-6.9-9.08-6.67-14.63.25-6.69 1.74-13.26 2.66-19.87 9.94-63.29 19.79-126.59 29.75-189.88.89-5.75 2.97-11.73 7.67-15.49m41.58 42.58c-1.12.82-.87 2.46-1.22 3.65-3.47 24-7.92 47.86-11.12 71.88 8.31.38 16.64.02 24.96.14 8.71-.17 17.68.78 26.12-1.94a37.2 37.2 0 0 0 20.5-15.44c6.02-9.57 8.04-21.46 6.18-32.56a30.24 30.24 0 0 0-18.38-22.57c-9.58-4.19-20.25-3.2-30.42-3.31-5.55.14-11.1-.31-16.62.15Zm234.61-42.31c5.18-4.55 12.41-5.19 19.02-5.04 46.66.05 93.33.01 139.99.02 5.95.1 12.07-.49 17.88 1.16 4.9 1.37 9.36 5.02 10.77 10.04 1.84 6.62-.05 13.48-1.14 20.07-.99 6.19-4 12.46-9.66 15.63-7.24 4.13-15.88 2.91-23.85 3.1-13.58.17-27.19-.34-40.74.24-9.53 59.21-18.54 118.52-27.96 177.76-.98 6.23-3.5 12.74-9.01 16.3-6.54 4.44-14.8 3.66-22.3 3.72-6.13.02-12.97-.92-17.34-5.67-4.54-4.91-4.71-12.14-3.71-18.39 8.98-56.96 17.94-113.92 26.96-170.88l.26-2.96c-16.07-.34-32.16.04-48.23-.16-6.18-.05-12.98-1.95-16.65-7.29-3.72-5.17-3.3-11.91-2.41-17.9.87-7.09 2.26-14.95 8.12-19.75Zm238.39-4.49c5.85-.83 11.8-.61 17.7-.4 5.55.22 11.51 2.24 14.73 7.04 3.42 4.96 3.24 11.32 2.37 17.03-10.79 67.84-21.47 135.71-32.23 203.56-.88 6.02-2.95 12.39-8.11 16.08-6.54 4.92-15.15 4.14-22.85 4.18-6.12.02-13-.88-17.27-5.74-4.48-4.92-4.48-12.11-3.5-18.3 9.24-59.03 18.49-118.07 27.71-177.11 1.73-10.27 2.99-20.62 5.09-30.81 1.64-7.91 8.26-14.48 16.36-15.53Zm99.15 2.96c6.66-4.31 14.92-3.4 22.47-3.5 7.42.19 15.44-.95 22.21 2.85 5.3 2.85 8.37 8.4 10.06 13.99 10.05 31.53 20.04 63.08 30.09 94.61 2.32 7.77 5.2 15.39 7 23.31 1.27 5.38 2.44 10.78 3.8 16.14 4.37-6.33 7.66-13.46 11.7-20.06 21.43-34.86 43.05-69.6 64.54-104.42 3.53-5.46 6.58-11.25 10.55-16.42a25.35 25.35 0 0 1 18.22-9.78c7.93-.47 15.88-.1 23.83-.22 6.18-.04 13.18.56 17.71 5.32 4.6 4.56 4.7 11.59 3.85 17.59a228643.3 228643.3 0 0 0-31.18 199.22c-.97 6.8-1.92 14.22-6.8 19.48-4.4 4.86-11.22 6.41-17.53 6.4-6.72-.01-14.02.61-19.99-3.06-5.11-3.04-7.61-9.14-7.38-14.92.23-6.71 1.79-13.28 2.69-19.92 6.87-42.67 13.23-85.42 20.38-128.05-4.15 5.92-7.01 12.72-10.71 18.98-19.24 31.69-38.85 63.17-58.24 94.78-3.75 6.41-10.1 11.75-17.75 12.26-6.61.39-13.32.66-19.87-.39-7.01-1.2-12.28-7.03-14.22-13.65-9.16-29.22-18.06-58.51-27.14-87.75-2.48-8.01-3.99-16.47-6.38-24.36-7.64 45.72-14.55 91.58-21.93 137.36-1.36 7.38-1.38 15.7-6.56 21.69-4.31 5.24-11.37 7-17.88 7.02-6.96.02-14.6.66-20.68-3.36-4.79-3.14-6.9-9.07-6.69-14.6.21-6.41 1.68-12.68 2.55-19.01 9.98-63.59 19.88-127.19 29.88-190.78.92-6.45 3.62-13.19 9.4-16.75Zm309.41.4c5.8-4.15 13.25-3.95 20.07-3.91 38.32.03 76.65.04 114.98 0 6.3-.04 13.35.27 18.3 4.73 4.64 3.96 5.56 10.55 4.78 16.3-1 7.59-1.27 16.25-7.07 21.99-5.14 5.32-13 6.06-19.98 5.98-30.31.05-60.62-.14-90.91.09-2.56 11.98-3.91 24.23-5.94 36.33-.74 5.16-1.94 10.26-2.25 15.47 26.37.34 52.76-.02 79.15.17 5.24.08 10.97 1.2 14.7 5.22 3.79 3.85 4.09 9.69 3.44 14.76-.9 6.5-1.66 13.74-6.53 18.64-4.26 4.52-10.76 5.72-16.71 5.67H2446c-7.45.19-14.92-.41-22.33.25-2.29 12.56-4 25.24-6.1 37.84-.75 5.18-1.93 10.32-2.24 15.55 25.54.27 51.11.03 76.67.12 6.47.11 12.99-.38 19.44.49 5.14.7 10.33 3.42 12.68 8.25 2.64 5.28 1.48 11.37.78 16.97-.79 5.96-1.78 12.42-6.17 16.91-4.67 5.19-12.06 6.34-18.68 6.29H2387c-5.21-.05-10.46.3-15.59-.59-4.58-.83-9.05-3.31-11.38-7.45-3.01-5.08-2.53-11.27-1.69-16.87 10.66-67.61 21.14-135.24 31.79-202.85.91-6.22 3.39-12.71 8.81-16.35Zm213.85-1.05c6.47-3.55 14.11-2.77 21.22-2.85 6.11-.03 12.98.94 17.23 5.82 4.16 4.61 4.34 11.29 3.47 17.11-9.17 58.29-18.47 116.57-27.52 174.87 26.25.5 52.54.07 78.81.21 6.89.16 14.24-.77 20.68 2.31 4.29 2 7.33 6.2 8.12 10.85 1.03 6.15-.37 12.35-1.48 18.38-1.09 5.54-3.57 11.14-8.33 14.46-5.16 3.78-11.85 4.07-17.99 4.02-38.67-.04-77.35-.01-116.02-.02-5.45-.01-11.35-.66-15.64-4.34-4.01-3.26-5.69-8.58-5.61-13.6.1-5.5 1.26-10.89 2.08-16.3 10.2-64.79 20.23-129.61 30.47-194.39.98-6.65 4.38-13.3 10.51-16.53Zm206.59-2.31c5.84-.83 11.8-.61 17.7-.4 5.55.22 11.51 2.23 14.73 7.04 3.26 4.72 3.25 10.77 2.48 16.23a469198.3 469198.3 0 0 0-31.91 201.72c-.92 5.71-1.86 11.9-5.93 16.33-4.05 4.66-10.41 6.42-16.37 6.5-5.31.1-10.64.3-15.89-.41-4.86-.71-9.69-3.19-12.16-7.57-3.02-5.08-2.53-11.28-1.69-16.88 10.61-67.31 21.05-134.64 31.64-201.95.75-4.9 2.04-9.95 5.28-13.85 2.98-3.71 7.45-5.99 12.12-6.76Zm94.44 7.32c3.5-4.77 9.34-7.26 15.14-7.65 6.35-.4 12.73-.19 19.11-.17 6.05.07 12.39 1.74 16.87 6.04 5.32 4.94 7.5 12.1 10.55 18.48l55.63 123.38c2.38 5.31 4.95 10.56 6.64 16.14.63 1.78 1.23 3.7 2.62 5.08 7.73-49.4 15.73-98.77 23.55-148.15.89-5.78 2.73-11.85 7.32-15.79 4.5-4.07 10.81-5.16 16.7-5.21 5.21-.04 10.62-.28 15.66 1.41 4.12 1.37 7.76 4.44 9.42 8.52 1.99 4.69 1.57 9.95.88 14.87-10.84 68.16-21.54 136.35-32.42 204.5-.94 6.43-4.13 12.99-10.15 16.02-7.83 4.03-16.93 2.31-25.36 2.69-7.94.34-16.77-1.55-21.8-8.23-4.95-6.58-7.35-14.62-10.99-21.93l-56.01-123.99c-2.44-5.21-3.77-10.91-6.6-15.92-7.33 47.05-14.93 94.07-22.37 141.1-.89 5.33-1.39 10.77-3.13 15.91a18.32 18.32 0 0 1-9.39 10.72c-6.14 2.94-13.16 2.34-19.75 2.3-5.94-.08-12.51-1.71-16.12-6.8-3.83-5.18-3.42-12.05-2.48-18.08 10.47-66.4 20.77-132.83 31.21-199.24.82-5.56 1.75-11.42 5.27-16Zm262.98-3.1c4.73-4 11.19-4.82 17.19-4.76 40.68.04 81.37-.03 122.06.03 7.12-.14 15.45 2.22 18.66 9.24 2.5 5.29 1.43 11.3.74 16.87-.76 5.77-1.8 11.98-5.97 16.37-4.34 4.88-11.15 6.35-17.4 6.42-31.33.19-62.66-.12-93.97.15-2.14 9.27-3.07 18.8-4.69 28.18-1.02 7.9-2.81 15.69-3.5 23.62 26.37.34 52.76-.01 79.15.17 5.7.04 12.03 1.5 15.64 6.32 3.39 4.46 3 10.45 2.24 15.69-.86 5.85-1.88 12.25-6.27 16.61-4.27 4.52-10.76 5.72-16.71 5.67H3228c-8.45.2-16.93-.41-25.33.26-2.24 12.28-3.91 24.68-5.97 37-.78 5.46-2.03 10.87-2.38 16.38 26.55.27 53.12.03 79.68.11 6.03.1 12.17-.43 18.15.81 4.76 1 9.33 4 11.28 8.61 2.24 5.15 1.13 10.92.47 16.3-.79 5.96-1.79 12.42-6.17 16.91-4.67 5.19-12.06 6.34-18.69 6.29-40.35.01-80.7-.02-121.05.01-4.55-.05-9.28-.37-13.32-2.61-4.26-2.22-7.08-6.67-7.69-11.38-.88-6.23.67-12.43 1.56-18.57 10.25-65.06 20.35-130.15 30.59-195.21.89-5.76 2.97-11.74 7.67-15.49ZM190.35 141.36c2.48-.7 5.09-.68 7.65-.71 16.34.12 32.68.01 49.02.05 7.88-.24 14.63 5.31 18.6 11.69 3.29 5.06 3.48 11.39 2.79 17.2-1.17 7.6-6.68 13.99-13.34 17.54-2.43 1.37-5.28 1.57-8.02 1.57-15.68-.09-31.36-.08-47.05-.03-4.33-.07-9.06.62-12.95-1.75-5.81-3.33-10.66-8.81-12.43-15.34-.76-6.03-1.37-12.7 1.81-18.18 2.99-5.49 7.94-10.07 13.92-12.04ZM49.38 202.51c4.81-.94 9.75-.43 14.62-.5 41.67 0 83.33.02 125-.02 5.56.14 11.72-.92 16.63 2.36 6.34 4.05 11.44 10.91 11.73 18.63.21 4.52.14 9.29-1.97 13.41-2.84 5.56-7.57 10.33-13.47 12.54-4.17 1.38-8.63.81-12.93.9-41.99-.03-83.99-.02-125.99-.01-5.58-.12-11.64.84-16.68-2.16-5.98-3.52-10.92-9.31-12.67-16.09-.79-6.11-.9-12.9 2.76-18.18 3.14-4.71 7.38-9.25 12.97-10.88Zm195.94-.06c1.51-.33 3.07-.42 4.62-.47 33.02.04 66.04.06 99.06 0 5.23.1 11.04-.75 15.64 2.36 5.75 3.74 10.51 9.68 11.42 16.65.77 6.28.28 13.2-3.64 18.44-3.13 4.2-7.17 8.06-12.25 9.7-4.29 1.14-8.79.61-13.17.7-30-.02-60-.04-89.99 0-4.97-.08-10.36.68-14.85-1.96-6.02-3.44-11.23-9.15-12.67-16.07-.54-6.02-1.06-12.67 2.28-18.03 3.07-5.09 7.66-9.76 13.55-11.32Zm-152.94 61.1c4.17-.67 8.42-.33 12.62-.37 17.69.01 35.37.02 53.06-.02 12.92-.48 24.55 12 23.46 24.84.58 9.02-5.2 17.39-12.89 21.62-2 1.13-4.32 1.35-6.57 1.39-22.7-.05-45.41-.07-68.12 0-7.09.43-12.82-4.95-16.55-10.4-4.24-5.79-3.96-13.48-2.82-20.21 2.71-7.96 9.46-14.98 17.81-16.85Zm119.99-.01c4.51-.67 9.09-.3 13.63-.36 55.68-.02 111.36.05 167.04-.03 13.15-.79 24.92 11.93 24.04 24.88.42 8.63-5.09 16.44-12.1 20.97-4.12 2.77-9.31 1.87-13.98 2-59.36-.05-118.72-.03-178.07-.01-6.73.1-12.08-5.12-15.63-10.31-3.96-5.6-3.84-12.87-2.9-19.36 2.16-8.53 9.31-15.88 17.97-17.78Z"/>
</svg>