<?xml version="1.0" encoding="UTF-8" ?>
<!DOCTYPE svg PUBLIC "-//W3C//DTD SVG 1.1//EN" "http://www.w3.org/Graphics/SVG/1.1/DTD/svg11.dtd">
<svg width="144pt" height="144pt" viewBox="0 0 144 144" version="1.1" xmlns="http://www.w3.org/2000/svg">
<g id="#202442ff">
</g>
<g id="#f60001ff">
<path fill="#f60001" opacity="1.00" d=" M 15.41 25.67 C 25.25 24.98 35.17 25.58 45.03 25.37 C 49.45 24.82 54.12 28.36 53.88 32.99 C 54.25 37.18 50.29 41.05 46.11 40.67 C 36.38 40.63 26.64 40.78 16.90 40.65 C 12.20 40.66 8.54 35.28 10.15 30.90 C 10.78 28.38 12.94 26.37 15.41 25.67 Z" />
<path fill="#f60001" opacity="1.00" d=" M 63.41 25.56 C 78.61 25.10 93.85 25.55 109.06 25.35 C 112.39 25.07 116.01 26.22 117.68 29.32 C 120.62 34.03 116.71 41.09 111.06 40.67 C 95.67 40.72 80.28 40.69 64.90 40.65 C 60.79 40.93 57.22 36.96 57.47 32.95 C 57.34 29.49 60.15 26.35 63.41 25.56 Z" />
<path fill="#f60001" opacity="1.00" d=" M 31.31 45.46 C 50.51 44.92 69.77 45.44 89.00 45.21 C 91.78 45.29 94.92 44.85 97.27 46.72 C 100.96 49.20 101.46 55.12 98.16 58.15 C 96.44 60.30 93.51 60.29 91.00 60.32 C 71.67 60.24 52.34 60.35 33.01 60.27 C 29.05 60.54 25.28 56.90 25.48 52.94 C 25.13 49.43 27.94 46.13 31.31 45.46 Z" />
<path fill="#f60001" opacity="1.00" d=" M 109.40 45.55 C 115.23 44.87 121.17 45.33 127.04 45.27 C 132.64 45.18 136.41 52.57 132.95 57.00 C 130.03 61.90 123.63 59.93 118.95 60.30 C 114.54 59.94 108.63 61.75 105.69 57.38 C 102.42 53.46 104.64 47.01 109.40 45.55 Z" />
</g>
<g id="#000000ff">
<path fill="#000000" opacity="1.00" d=" M 22.43 64.60 C 29.25 63.93 36.13 64.54 42.98 64.29 C 46.81 64.04 51.30 65.35 52.92 69.18 C 55.53 73.87 50.82 79.48 45.93 79.58 C 39.96 79.84 33.97 79.45 28.00 79.95 C 23.64 80.34 18.20 79.18 16.38 74.68 C 14.40 70.29 17.90 65.24 22.43 64.60 Z" />
<path fill="#000000" opacity="1.00" d=" M 96.39 64.60 C 103.23 63.90 110.13 64.58 117.00 64.28 C 120.86 64.21 125.93 63.92 128.00 67.97 C 131.35 72.57 127.49 79.40 122.09 79.85 C 115.06 80.25 108.01 79.83 100.97 80.03 C 97.28 80.39 93.15 79.12 91.36 75.63 C 88.70 71.54 91.66 65.38 96.39 64.60 Z" />
</g>
<g id="#ffffffff">
<path fill="#ffffff" opacity="1.00" d=" M 60.57 65.67 C 63.76 63.94 67.51 64.68 70.98 64.54 C 74.63 64.69 78.36 64.13 81.95 64.95 C 87.15 66.37 88.68 74.16 84.54 77.55 C 81.75 80.32 77.48 79.30 73.96 79.48 C 69.70 79.17 65.21 80.27 61.14 78.65 C 56.28 76.23 56.03 68.57 60.57 65.67 Z" />
<path fill="#ffffff" opacity="1.00" d=" M 16.51 84.64 C 18.82 83.55 21.50 83.97 23.98 83.86 C 37.00 84.06 50.03 83.64 63.06 83.77 C 67.55 83.65 71.53 88.31 70.63 92.73 C 69.98 96.27 66.71 99.13 63.06 99.01 C 49.02 99.17 34.98 99.07 20.93 99.08 C 17.56 99.26 14.08 97.30 12.99 94.01 C 11.27 90.56 13.56 86.56 16.51 84.64 Z" />
<path fill="#ffffff" opacity="1.00" d=" M 79.36 84.39 C 90.87 83.52 102.55 84.21 114.13 84.03 C 119.00 83.68 122.66 89.58 120.77 93.88 C 119.84 97.17 116.37 99.16 113.08 99.08 C 103.04 99.12 93.01 99.07 82.97 99.08 C 79.62 99.25 76.26 97.15 75.18 93.92 C 73.50 90.26 75.95 85.98 79.36 84.39 Z" />
<path fill="#ffffff" opacity="1.00" d=" M 69.38 103.56 C 86.55 103.06 103.78 103.61 120.97 103.39 C 124.36 103.48 128.19 102.82 131.10 105.01 C 136.09 108.45 134.32 118.11 127.90 118.52 C 108.92 118.67 89.93 118.54 70.95 118.57 C 65.86 119.00 61.96 112.76 64.13 108.26 C 65.19 106.10 67.07 104.29 69.38 103.56 Z" />
<path fill="#ffffff" opacity="1.00" d=" M 29.37 104.40 C 31.42 103.43 33.76 103.63 35.96 103.60 C 41.31 103.71 46.67 103.57 52.02 103.66 C 55.68 103.44 58.52 106.75 59.33 110.04 C 59.84 114.11 56.41 118.84 52.07 118.56 C 45.68 118.58 39.29 118.57 32.90 118.58 C 29.64 118.91 26.92 116.36 25.71 113.55 C 24.35 110.12 26.35 106.19 29.37 104.40 Z" />
</g>
</svg>
